<?xml version="1.0" encoding="utf-8"?>
<!-- Generator: Adobe Illustrator 19.0.0, SVG Export Plug-In . SVG Version: 6.00 Build 0)  -->
<svg version="1.1" xmlns="http://www.w3.org/2000/svg" xmlns:xlink="http://www.w3.org/1999/xlink" x="0px" y="0px"
	 viewBox="0 0 1000 1000" enable-background="new 0 0 1000 1000" xml:space="preserve">
<g id="Layer_1" display="none">
	<g display="inline">
		<g>
			<text transform="matrix(1 0 0 1 98.5537 565.3809)"><tspan x="0" y="0" fill="#DC143C" font-family="'Monopoly-Bold'" font-size="202.8036px">fe   </tspan><tspan x="302" y="0" fill="#DC143C" font-family="'Monopoly-Bold'" font-size="85.9887px"> </tspan><tspan x="324.2" y="0" fill="#DC143C" font-family="'Monopoly-Bold'" font-size="202.8036px">er</tspan></text>
		</g>
		<path fill="#FF7F00" d="M387.2,521.5l6.8-36.6c1.7-9,5.5-8.9,7.5-8.5c1.3,0.3,3.1,0.9,3.7,1.2c0,0.2-0.1,0.3,0,0.4
			c0.6,4.5,1.8,16,1.8,16s1.8-7.5,2.4-13.8c0.1,0.1,0.2,0.2,0.3,0.3c2.7,2.4,5.8,13.7,2.8,26.8c-3.7,15.8-15.6,23.7-21,22.6
			C389.6,529.4,386.1,527.4,387.2,521.5z"/>
		<path fill="#FF7F00" d="M358,473.9c2.3-2.3,5.1-5,7.8-7.5c0.8-2.3,1.1-5.6,0.4-11.3c-0.5,3.4-3.1,8.7-5.1,11.4
			c-2.8,3.7-8.2,9.5-12.3,13.5c0,0-6.7,6.7-13.8,20.2c-2.1,3.9-3.1,6.7-3.6,10.8c0,0.1,0,0.2,0,0.3c0,0,0,0.3,0,1.1c0,0.5,0,1.1,0,2
			c0.5-4,2.4-8.9,4.6-12.8C345.9,484,348.5,483.5,358,473.9z"/>
		<path fill="#FF7F00" d="M358,484.6c3.5-3.5,10.9-9.3,17-14c0.2-5.3,0.4-10.2,0.4-10.2s-10.8,8.7-17.4,15.5
			c-10.2,10.3-12.8,11.4-22,27.6c-2.2,3.9-4.1,8.7-4.6,12.8c0,6.5,0,9.7,0,11.2c0,0,0,0,0,0c0,0,0,0.1,0,0.2c0.5-4,2.1-8.7,4.1-12.8
			C343.6,498.1,347.7,495,358,484.6z"/>
		<path fill="#FF7F00" d="M381.5,539.8c-5.6,3.4-10.6,6.9-15.4,11.4c-5.6,5.4-6.1,6.1-12.3,12.1c-4.7,4.7-9.5,10.8-13.8,16.1
			c-3,3.7-5.7,8.4-8.7,12.1c0-23.1,0-38.1,0-61.2c0.5-4,2.1-8.7,4.1-12.8c8.2-16.8,12.3-20,22.5-30.3c6.7-6.7,20-16.8,27.1-21.5
			C383.7,490,382.9,515.6,381.5,539.8z"/>
		<g>
			<path fill="#FF7F00" d="M301.1,472.5c10.2,10.3,14.3,15.5,22.5,32.3c1.5,3.1,2.8,7.5,3.6,11.1c0-1.4,0-3.1,0-5.1
				c-0.5-4-4.1-14.1-4.1-14.1c-0.5-2-11.4-24.9-22-34.3c-7-6.2-10.2-9.4-10.2-9.4s0.2,5.4,0.4,11.1
				C294.4,466.5,298.1,469.5,301.1,472.5z"/>
		</g>
		<g>
			<path fill="#FF7F00" d="M301.1,485.3c10.2,10.3,14.3,13.5,22.5,30.3c1.5,3.1,2.8,6.7,3.6,10c0-1,0-2.1,0-3.2
				c-0.5-4-2.4-12.3-4.6-16.1c-9.2-16.1-11.8-20-22-30.3c-6.7-6.7-16.4-14.8-16.4-14.8s0.2,5.1,0.3,10.6
				C290.6,476.3,297.7,481.9,301.1,485.3z"/>
		</g>
		<path fill="#FF7F00" d="M277.6,539.8c5.6,3.4,10.6,6.9,15.4,11.4c5.6,5.4,6.1,6.1,12.3,12.1c4.7,4.7,9.5,10.8,13.8,16.1
			c3,3.7,5.7,8.4,8.7,12.1c0-23.1,0-38.1,0-61.2c-0.5-4-2.1-8.7-4.1-12.8c-8.2-16.8-12.3-20-22.5-30.3c-6.7-6.7-20-16.8-27.1-21.5
			C275.3,490,276.2,515.6,277.6,539.8z"/>
		<path fill="#FF7F00" d="M364.2,454.3c-0.1,1.5-1,5.2-3.3,8.9c-2.6,4.1-6.4,8.3-10.7,12.6c3.6-6.1,4.1-6.1,5.6-12.8
			c1.3-5.6,0.6-7.8,0.5-8.7c-0.5-4-4.6-8.1-4.6-8.1C352.4,446.1,365.1,444.2,364.2,454.3z"/>
		<path fill="#FF7F00" d="M330.2,420.3c39.2,0,71,33,71,73.7h6.2c0-44.2-34.5-80.1-77.2-80.1S253,449.8,253,494h6.2
			C259.2,453.3,291,420.3,330.2,420.3z"/>
		<path fill="#FF7F00" d="M273.1,521.5l-6.9-36.6c-1.7-9-5.6-8.9-7.6-8.5c-1.3,0.3-3.1,0.9-3.8,1.2c0,0.2,0.1,0.3,0,0.4
			c-0.6,4.5-1.9,16-1.9,16s-1.8-7.5-2.4-13.8c-0.1,0.1-0.2,0.2-0.3,0.3c-2.7,2.4-5.9,13.7-2.8,26.8c3.7,15.8,15.9,23.7,21.3,22.6
			C270.7,529.4,274.2,527.4,273.1,521.5z"/>
		<g>
			<text transform="matrix(1 0 0 1 569.0557 565.3809)" fill="#DC143C" font-family="'Monopoly-Bold'" font-size="202.8036px">few.</text>
		</g>
	</g>
</g>
<g id="Layer_2" display="none">
	<g display="inline">
		<g>
			<text transform="matrix(1 0 0 1 120.7849 557.092)"><tspan x="0" y="0" fill="#FFFFFF" font-family="'Monopoly-Bold'" font-size="202.8036px">fe   </tspan><tspan x="302" y="0" fill="#FFFFFF" font-family="'Monopoly-Bold'" font-size="85.9887px"> </tspan><tspan x="324.2" y="0" fill="#FFFFFF" font-family="'Monopoly-Bold'" font-size="202.8036px">er</tspan></text>
		</g>
		<path fill="#FFFFFF" d="M409.5,513.2l6.8-36.6c1.7-9,5.5-8.9,7.5-8.5c1.3,0.3,3.1,0.9,3.7,1.2c0,0.2-0.1,0.3,0,0.4
			c0.6,4.5,1.8,16,1.8,16s1.8-7.5,2.4-13.8c0.1,0.1,0.2,0.2,0.3,0.3c2.7,2.4,5.8,13.7,2.8,26.8c-3.7,15.8-15.6,23.7-21,22.6
			C411.8,521.2,408.4,519.1,409.5,513.2z"/>
		<path fill="#FFFFFF" d="M380.2,465.6c2.3-2.3,5.1-5,7.8-7.5c0.8-2.3,1.1-5.6,0.4-11.3c-0.5,3.4-3.1,8.7-5.1,11.4
			c-2.8,3.7-8.2,9.5-12.3,13.5c0,0-6.7,6.7-13.8,20.2c-2.1,3.9-3.1,6.7-3.6,10.8c0,0.1,0,0.2,0,0.3c0,0,0,0.3,0,1.1c0,0.5,0,1.1,0,2
			c0.5-4,2.4-8.9,4.6-12.8C368.1,475.7,370.7,475.2,380.2,465.6z"/>
		<path fill="#FFFFFF" d="M380.2,476.4c3.5-3.5,10.9-9.3,17-14c0.2-5.3,0.4-10.2,0.4-10.2s-10.8,8.7-17.4,15.5
			c-10.2,10.3-12.8,11.4-22,27.6c-2.2,3.9-4.1,8.7-4.6,12.8c0,6.5,0,9.7,0,11.2c0,0,0,0,0,0c0,0,0,0.1,0,0.2c0.5-4,2.1-8.7,4.1-12.8
			C365.9,489.8,370,486.7,380.2,476.4z"/>
		<path fill="#FFFFFF" d="M403.8,531.5c-5.6,3.4-10.6,6.9-15.4,11.4c-5.6,5.4-6.1,6.1-12.3,12.1c-4.7,4.7-9.5,10.8-13.8,16.1
			c-3,3.7-5.7,8.4-8.7,12.1c0-23.1,0-38.1,0-61.2c0.5-4,2.1-8.7,4.1-12.8c8.2-16.8,12.3-20,22.5-30.3c6.7-6.7,20-16.8,27.1-21.5
			C406,481.7,405.1,507.3,403.8,531.5z"/>
		<g>
			<path fill="#FFFFFF" d="M323.4,464.2c10.2,10.3,14.3,15.5,22.5,32.3c1.5,3.1,2.8,7.5,3.6,11.1c0-1.4,0-3.1,0-5.1
				c-0.5-4-4.1-14.1-4.1-14.1c-0.5-2-11.4-24.9-22-34.3c-7-6.2-10.2-9.4-10.2-9.4s0.2,5.4,0.4,11.1
				C316.7,458.2,320.4,461.2,323.4,464.2z"/>
		</g>
		<g>
			<path fill="#FFFFFF" d="M323.4,477c10.2,10.3,14.3,13.5,22.5,30.3c1.5,3.1,2.8,6.7,3.6,10c0-1,0-2.1,0-3.2
				c-0.5-4-2.4-12.3-4.6-16.1c-9.2-16.1-11.8-20-22-30.3c-6.7-6.7-16.4-14.8-16.4-14.8s0.2,5.1,0.3,10.6
				C312.9,468,319.9,473.6,323.4,477z"/>
		</g>
		<path fill="#FFFFFF" d="M299.8,531.5c5.6,3.4,10.6,6.9,15.4,11.4c5.6,5.4,6.1,6.1,12.3,12.1c4.7,4.7,9.5,10.8,13.8,16.1
			c3,3.7,5.7,8.4,8.7,12.1c0-23.1,0-38.1,0-61.2c-0.5-4-2.1-8.7-4.1-12.8c-8.2-16.8-12.3-20-22.5-30.3c-6.7-6.7-20-16.8-27.1-21.5
			C297.6,481.7,298.4,507.3,299.8,531.5z"/>
		<path fill="#FFFFFF" d="M386.4,446.1c-0.1,1.5-1,5.2-3.3,8.9c-2.6,4.1-6.4,8.3-10.7,12.6c3.6-6.1,4.1-6.1,5.6-12.8
			c1.3-5.6,0.6-7.8,0.5-8.7c-0.5-4-4.6-8.1-4.6-8.1C374.7,437.8,387.3,435.9,386.4,446.1z"/>
		<path fill="#FFFFFF" d="M352.4,412c39.2,0,71,33,71,73.7h6.2c0-44.2-34.5-80.1-77.2-80.1s-77.2,35.9-77.2,80.1h6.2
			C281.4,445,313.2,412,352.4,412z"/>
		<path fill="#FFFFFF" d="M295.3,513.2l-6.9-36.6c-1.7-9-5.6-8.9-7.6-8.5c-1.3,0.3-3.1,0.9-3.8,1.2c0,0.2,0.1,0.3,0,0.4
			c-0.6,4.5-1.9,16-1.9,16s-1.8-7.5-2.4-13.8c-0.1,0.1-0.2,0.2-0.3,0.3c-2.7,2.4-5.9,13.7-2.8,26.8c3.7,15.8,15.9,23.7,21.3,22.6
			C292.9,521.2,296.5,519.1,295.3,513.2z"/>
		<g>
			<text transform="matrix(1 0 0 1 591.2869 557.092)" fill="#FFFFFF" font-family="'Monopoly-Bold'" font-size="202.8036px">few.</text>
		</g>
	</g>
</g>
<g id="Layer_3">
	<g>
		<path d="M727.4,566.9l24.4-130.8c6-32.3,19.7-31.8,26.7-30.3c4.7,1,10.9,3.3,13.3,4.2c-0.1,0.5-0.2,1.1-0.1,1.6
			c2.2,16,6.5,57.2,6.5,57.2s6.3-26.7,8.6-49.4c0.4,0.3,0.7,0.6,1.1,0.9c9.5,8.4,20.8,48.8,9.9,95.7c-13,56.4-55.8,84.6-74.9,80.6
			C735.8,595.2,723.4,588,727.4,566.9z"/>
		<path d="M622.9,396.9c8.3-8.4,18.4-17.9,28-26.8c2.9-8.1,3.8-19.8,1.3-40.5c-1.8,12-11,31.2-18.3,40.8
			c-10.1,13.3-29.2,33.9-43.9,48c0,0-23.8,24-49.4,72.1c-7.5,14.1-11,24-12.8,38.4c0,0.4,0,0.8,0,1.1c0-0.1,0,0.9,0,3.9
			c0,1.6,0,3.9,0,7c1.8-14.4,8.6-31.9,16.5-45.6C579.9,433,589,431.1,622.9,396.9z"/>
		<path d="M622.9,435.3c12.5-12.7,38.8-33.4,60.8-50.1c0.5-18.9,1.3-36.4,1.3-36.4s-38.4,31.2-62.2,55.3
			c-36.5,36.9-45.7,40.8-78.6,98.5c-7.9,13.8-14.6,31.2-16.5,45.6c0,23.2,0,34.7,0,39.9c0,0,0,0,0,0c0,0,0,0.2,0,0.9
			c1.8-14.4,7.6-31.1,14.6-45.6C571.7,483.3,586.4,472.2,622.9,435.3z"/>
		<path d="M707,632.3c-20.1,12-38,24.7-54.8,40.8c-20.1,19.2-21.9,21.6-43.9,43.2c-16.9,16.6-34,38.7-49.4,57.7
			c-10.8,13.3-20.3,29.9-31.1,43.2c0-82.5,0-136.1,0-218.6c1.8-14.4,7.6-31.1,14.6-45.6c29.2-60.1,44-71.2,80.4-108.1
			c23.8-24,71.3-60.1,96.9-76.9C714.9,454.5,711.9,545.8,707,632.3z"/>
		<g>
			<path d="M420,392c36.5,36.9,51.2,55.2,80.4,115.3c5.5,11.2,10.1,26.6,12.8,39.7c0-5.2,0-11.1,0-18.1
				c-1.8-14.4-14.6-50.4-14.6-50.4c-1.8-7.2-40.8-88.8-78.6-122.5c-24.8-22.1-36.6-33.6-36.6-33.6s0.7,19.3,1.3,39.5
				C396.1,370.5,409.3,381.3,420,392z"/>
		</g>
		<g>
			<path d="M420,437.7c36.5,36.9,51.2,48,80.4,108.1c5.5,11.2,10.1,23.8,12.8,35.6c0-3.5,0-7.3,0-11.6c-1.8-14.4-8.6-43.9-16.5-57.7
				c-32.9-57.7-42.1-71.2-78.6-108.1c-23.8-24-58.5-52.8-58.5-52.8s0.7,18.1,1.2,37.7C382.5,405.4,407.8,425.3,420,437.7z"/>
		</g>
		<path d="M335.9,632.3c20.1,12,38,24.7,54.8,40.8c20.1,19.2,21.9,21.6,43.9,43.2c16.9,16.6,34,38.7,49.4,57.7
			c10.8,13.3,20.3,29.9,31.1,43.2c0-82.5,0-136.1,0-218.6c-1.8-14.4-7.6-31.1-14.6-45.6c-29.2-60.1-44-71.2-80.4-108.1
			c-23.8-24-71.3-60.1-96.9-76.9C328,454.5,331,545.8,335.9,632.3z"/>
		<path d="M645.2,327.1c-0.4,5.5-3.6,18.7-11.8,31.6c-9.3,14.7-22.7,29.6-38.2,44.9c12.8-21.6,14.6-21.6,20.1-45.6
			c4.6-20,2.3-27.9,1.8-31.2c-1.8-14.4-16.5-28.8-16.5-28.8C603.2,297.8,648.2,290.8,645.2,327.1z"/>
		<path d="M523.7,205.6c140,0,253.4,117.8,253.4,263.1h22c0-158-123.3-286-275.5-286s-275.5,128.1-275.5,286h22
			C270.2,323.5,383.7,205.6,523.7,205.6z"/>
		<path d="M320,566.9l-24.8-130.8c-6.1-32.3-20-31.8-27.1-30.3c-4.8,1-11.1,3.3-13.5,4.2c0.1,0.5,0.2,1.1,0.2,1.6
			c-2.2,16-6.6,57.2-6.6,57.2s-6.4-26.7-8.7-49.4c-0.4,0.3-0.7,0.6-1.1,0.9c-9.7,8.4-21.1,48.8-10.1,95.7
			c13.2,56.4,56.6,84.6,76,80.6C311.4,595.2,324,588,320,566.9z"/>
	</g>
</g>
</svg>
